# xmcd
# 
# Track frame offsets:
#     150
#     14188
#     31648
#     45878
#     63819
#     79854
#     104778
#     119821
#     145856
#     160655
#     177492
#     195779
#     209918
#     227914
#     247185
# 
# Disc length: 3515
# 
# Revision: 0
# Processed by: cddbd v1.5.2PL0 Copyright (c) Steve Scherf et al.
# Submitted via: fre:ac v1.0.17
# 
DISCID=d50db90f
DTITLE=Pikey Butler's - Jumpin' Five
DYEAR=0
DGENRE=Blues
TTITLE0=Be Lucky
TTITLE1=Economical (with The Truth)
TTITLE2=Minor Melody
TTITLE3=French Girl
TTITLE4=Streamline
TTITLE5=Get her Off My Mind
TTITLE6=Full Moon Party
TTITLE7=Noghtclub (After Hours)
TTITLE8=Like A Flame
TTITLE9=Twin Boy Boogie
TTITLE10=Suddenly
TTITLE11=Why?
TTITLE12=Jackpot
TTITLE13=Rollercoaster
TTITLE14=When You Got The Blues
EXTD=
EXTT0=
EXTT1=
EXTT2=
EXTT3=
EXTT4=
EXTT5=
EXTT6=
EXTT7=
EXTT8=
EXTT9=
EXTT10=
EXTT11=
EXTT12=
EXTT13=
EXTT14=
PLAYORDER=
